<?xml version="1.0" standalone="no"?>
<!DOCTYPE svg PUBLIC "-//W3C//DTD SVG 20010904//EN" "http://www.w3.org/TR/2001/REC-SVG-20010904/DTD/svg10.dtd">
<svg xmlns="http://www.w3.org/2000/svg" version="1.0" width="592" height="421" viewBox="0 0 592.000000 421.000000" preserveAspectRatio="xMidYMid meet">

<g transform="translate(0.000000,421.000000) scale(0.100000,-0.100000)" fill="#000000" stroke="none">
<path d="M4196 4168 c-20 -18 -83 -173 -266 -653 -132 -346 -240 -634 -240 -640 0 -9 693 -315 712 -315 3 0 21 37 38 83 17 45 132 345 255 667 123 322 239 627 259 678 41 107 45 153 16 182 -19 19 -33 20 -384 20 -364 0 -365 0 -390 -22z"/>
<path d="M2460 2910 c-14 -4 -198 -84 -410 -178 -386 -170 -1261 -556 -1720 -758 -135 -59 -255 -113 -267 -121 -49 -32 -53 -59 -53 -371 0 -159 3 -304 6 -321 12 -56 52 -83 275 -181 118 -51 653 -286 1189 -522 536 -236 990 -431 1010 -434 28 -5 39 -1 55 16 19 21 20 39 23 348 3 350 1 367 -47 401 -22 16 -331 144 -1176 486 -423 171 -435 176 -435 195 0 20 -72 -10 859 369 581 237 741 306 765 330 l31 31 0 341 0 341 -24 19 c-25 20 -41 22 -81 9z"/>
<path d="M3649 2792 c-6 -15 -39 -101 -74 -192 -186 -488 -173 -450 -156 -450 5 0 172 -69 372 -154 354 -149 797 -333 1087 -451 78 -32 142 -64 142 -71 0 -6 -6 -16 -12 -22 -7 -5 -265 -112 -573 -236 -308 -125 -563 -230 -567 -234 -9 -9 -358 -925 -354 -929 3 -3 316 134 1561 682 347 153 659 289 694 304 35 14 81 42 103 62 l38 36 0 331 0 332 -27 30 c-30 32 -96 62 -1483 667 -360 157 -674 294 -698 304 l-43 19 -10 -28z"/>
<path d="M3385 2089 c-6 -19 -553 -1454 -662 -1739 -48 -124 -87 -239 -87 -257 0 -18 8 -41 19 -53 18 -19 28 -20 401 -20 l382 0 26 68 c324 852 627 1645 639 1673 l16 36 -347 146 c-418 176 -381 162 -387 146z"/>
</g>
</svg>