<svg width="21" height="21" viewBox="0 0 21 21" fill="currentColor" xmlns="http://www.w3.org/2000/svg">
<g clip-path="url(#clip0_116_88)">
<path d="M7.16589 15.8568C7.16589 15.9349 7.07605 15.9974 6.96277 15.9974C6.83386 16.0091 6.74402 15.9466 6.74402 15.8568C6.74402 15.7787 6.83386 15.7162 6.94714 15.7162C7.06433 15.7044 7.16589 15.7669 7.16589 15.8568ZM5.95105 15.681C5.92371 15.7591 6.00183 15.849 6.11902 15.8724C6.22058 15.9115 6.33777 15.8724 6.36121 15.7943C6.38464 15.7162 6.31042 15.6263 6.19324 15.5912C6.09167 15.5638 5.97839 15.6029 5.95105 15.681ZM7.67761 15.6146C7.56433 15.6419 7.48621 15.7162 7.49792 15.806C7.50964 15.8841 7.61121 15.9349 7.72839 15.9076C7.84167 15.8802 7.9198 15.806 7.90808 15.7279C7.89636 15.6537 7.79089 15.6029 7.67761 15.6146ZM10.2479 0.645844C4.82996 0.645844 0.685425 4.75912 0.685425 10.1771C0.685425 14.5091 3.41199 18.2162 7.30652 19.5208C7.80652 19.6107 7.9823 19.3021 7.9823 19.0482C7.9823 18.806 7.97058 17.4701 7.97058 16.6497C7.97058 16.6497 5.23621 17.2357 4.66199 15.4857C4.66199 15.4857 4.21667 14.349 3.57605 14.056C3.57605 14.056 2.68152 13.4427 3.63855 13.4544C3.63855 13.4544 4.61121 13.5326 5.14636 14.4622C6.00183 15.9701 7.43542 15.5365 7.99402 15.2787C8.08386 14.6537 8.33777 14.2201 8.61902 13.9622C6.43542 13.7201 4.2323 13.4037 4.2323 9.64584C4.2323 8.57162 4.52917 8.03256 5.15417 7.34506C5.05261 7.09116 4.72058 6.04428 5.25574 4.69272C6.07214 4.43881 7.95105 5.74741 7.95105 5.74741C8.7323 5.52866 9.57214 5.41537 10.4042 5.41537C11.2362 5.41537 12.076 5.52866 12.8573 5.74741C12.8573 5.74741 14.7362 4.43491 15.5526 4.69272C16.0878 6.04819 15.7557 7.09116 15.6542 7.34506C16.2792 8.03647 16.662 8.57553 16.662 9.64584C16.662 13.4154 14.3612 13.7162 12.1776 13.9622C12.537 14.2708 12.8417 14.8568 12.8417 15.7747C12.8417 17.0912 12.83 18.7201 12.83 19.0404C12.83 19.2943 13.0096 19.6029 13.5057 19.513C17.412 18.2162 20.0604 14.5091 20.0604 10.1771C20.0604 4.75912 15.6659 0.645844 10.2479 0.645844ZM4.4823 14.1185C4.43152 14.1576 4.44324 14.2474 4.50964 14.3216C4.57214 14.3841 4.66199 14.4115 4.71277 14.3607C4.76355 14.3216 4.75183 14.2318 4.68542 14.1576C4.62292 14.0951 4.53308 14.0677 4.4823 14.1185ZM4.06042 13.8021C4.03308 13.8529 4.07214 13.9154 4.15027 13.9544C4.21277 13.9935 4.29089 13.9818 4.31824 13.9271C4.34558 13.8763 4.30652 13.8138 4.22839 13.7747C4.15027 13.7513 4.08777 13.763 4.06042 13.8021ZM5.32605 15.1927C5.26355 15.2435 5.28699 15.3607 5.37683 15.4349C5.46667 15.5247 5.57996 15.5365 5.63074 15.474C5.68152 15.4232 5.65808 15.306 5.57996 15.2318C5.49402 15.1419 5.37683 15.1302 5.32605 15.1927ZM4.88074 14.6185C4.81824 14.6576 4.81824 14.7591 4.88074 14.849C4.94324 14.9388 5.04871 14.9779 5.09949 14.9388C5.16199 14.888 5.16199 14.7865 5.09949 14.6966C5.0448 14.6068 4.94324 14.5677 4.88074 14.6185Z"/>
</g>
<defs>
<clipPath id="clip0_116_88">
<rect width="20" height="20" transform="translate(0.372925 0.333344)"/>
</clipPath>
</defs>
</svg>
