<svg width="21" height="21" viewBox="0 0 21 21" fill="none" xmlns="http://www.w3.org/2000/svg">
<g clip-path="url(#clip0_116_84)">
<path d="M5.54011 17.8333H1.91199V6.14976H5.54011V17.8333ZM3.7241 4.55601C2.56394 4.55601 1.62292 3.59507 1.62292 2.43491C1.62292 1.87765 1.8443 1.34321 2.23834 0.949159C2.63239 0.555113 3.16683 0.33374 3.7241 0.33374C4.28136 0.33374 4.8158 0.555113 5.20985 0.949159C5.6039 1.34321 5.82527 1.87765 5.82527 2.43491C5.82527 3.59507 4.88386 4.55601 3.7241 4.55601ZM19.119 17.8333H15.4987V12.1458C15.4987 10.7904 15.4714 9.0521 13.6124 9.0521C11.726 9.0521 11.437 10.5248 11.437 12.0482V17.8333H7.81277V6.14976H11.2925V7.74351H11.3432C11.8276 6.82554 13.0108 5.85679 14.776 5.85679C18.4479 5.85679 19.1229 8.27476 19.1229 11.4154V17.8333H19.119Z" fill="white"/>
</g>
<defs>
<clipPath id="clip0_116_84">
<rect width="20" height="20" fill="white" transform="translate(0.372925 0.333344)"/>
</clipPath>
</defs>
</svg>
