<svg width="21" height="17" viewBox="0 0 21 17" fill="none" xmlns="http://www.w3.org/2000/svg">
<path d="M17.3729 0H3.37292C2.57728 0 1.81421 0.32924 1.2516 0.915291C0.688995 1.50134 0.372925 2.2962 0.372925 3.125V13.5417C0.372925 14.3705 0.688995 15.1653 1.2516 15.7514C1.81421 16.3374 2.57728 16.6667 3.37292 16.6667H17.3729C18.1686 16.6667 18.9316 16.3374 19.4942 15.7514C20.0569 15.1653 20.3729 14.3705 20.3729 13.5417V3.125C20.3729 2.2962 20.0569 1.50134 19.4942 0.915291C18.9316 0.32924 18.1686 0 17.3729 0ZM3.37292 2.08333H17.3729C17.6381 2.08333 17.8925 2.19308 18.08 2.38843C18.2676 2.58378 18.3729 2.84873 18.3729 3.125L10.3729 8.20833L2.37292 3.125C2.37292 2.84873 2.47828 2.58378 2.66582 2.38843C2.85335 2.19308 3.10771 2.08333 3.37292 2.08333ZM18.3729 13.5417C18.3729 13.8179 18.2676 14.0829 18.08 14.2782C17.8925 14.4736 17.6381 14.5833 17.3729 14.5833H3.37292C3.10771 14.5833 2.85335 14.4736 2.66582 14.2782C2.47828 14.0829 2.37292 13.8179 2.37292 13.5417V5.5L9.85292 10.2604C10.0049 10.3518 10.1774 10.4 10.3529 10.4C10.5285 10.4 10.7009 10.3518 10.8529 10.2604L18.3729 5.5V13.5417Z" fill="white"/>
</svg>
