<?xml version="1.0" standalone="no"?>
<!DOCTYPE svg PUBLIC "-//W3C//DTD SVG 20010904//EN"
 "http://www.w3.org/TR/2001/REC-SVG-20010904/DTD/svg10.dtd">
<svg version="1.0" xmlns="http://www.w3.org/2000/svg"
 width="718.000000pt" height="733.000000pt" viewBox="0 0 718.000000 733.000000"
 preserveAspectRatio="xMidYMid meet">

<g transform="translate(0.000000,733.000000) scale(0.100000,-0.100000)"
fill="#ffffff" stroke="none">
<path d="M3363 7038 c48 -109 57 -138 57 -191 0 -106 -35 -177 -191 -387 -92
-124 -139 -210 -139 -253 0 -127 160 -222 375 -221 78 0 112 5 156 22 70 28
136 84 160 136 32 71 25 93 -63 218 -38 53 -38 53 -28 113 20 123 7 205 -39
249 l-26 25 0 -63 c0 -58 -5 -74 -63 -187 -71 -142 -75 -168 -36 -252 20 -45
23 -60 14 -77 -23 -43 -102 -14 -135 50 -32 61 -14 124 70 257 66 105 85 162
85 259 0 123 -46 215 -144 286 -42 30 -62 36 -53 16z"/>
<path d="M2420 7006 c0 -2 12 -30 28 -62 23 -50 27 -72 27 -144 0 -77 -3 -92
-33 -153 -19 -38 -73 -121 -121 -186 -49 -64 -107 -148 -130 -187 -39 -63 -42
-74 -38 -122 3 -39 11 -61 34 -90 93 -115 358 -159 514 -85 100 47 151 110
153 189 1 34 -8 52 -57 120 -51 70 -57 83 -53 114 24 150 16 225 -30 280 -32
37 -47 39 -33 3 17 -46 0 -110 -56 -219 -77 -147 -82 -172 -51 -239 29 -61 33
-97 11 -115 -37 -30 -119 31 -131 98 -10 54 11 117 72 213 82 132 88 149 89
269 0 97 -2 109 -30 164 -29 57 -84 114 -137 142 -16 8 -28 13 -28 10z"/>
<path d="M4303 6999 c56 -128 59 -143 55 -218 -6 -95 -42 -170 -154 -321 -161
-216 -187 -269 -165 -340 23 -76 106 -135 234 -165 220 -52 444 41 464 193 6
44 -11 84 -62 147 -48 61 -52 72 -44 123 11 67 11 161 -1 203 -5 19 -22 47
-37 62 l-28 26 0 -68 c0 -63 -4 -75 -64 -193 -71 -140 -73 -159 -31 -255 23
-51 23 -53 5 -73 -53 -59 -158 52 -140 148 8 45 23 73 91 182 64 103 78 153
72 268 -5 103 -33 167 -97 225 -47 42 -107 77 -98 56z"/>
<path d="M3301 5939 c-101 -11 -143 -29 -166 -73 -24 -44 -14 -95 28 -140 32
-34 33 -34 82 -24 64 14 335 14 397 1 57 -12 78 -1 109 59 40 78 -2 149 -97
167 -79 15 -262 20 -353 10z"/>
<path d="M2319 5886 c-84 -15 -120 -34 -137 -72 -24 -50 -9 -106 40 -151 24
-23 25 -23 104 -7 58 11 125 15 251 12 170 -3 172 -3 197 21 60 56 50 152 -19
189 -41 22 -327 27 -436 8z"/>
<path d="M4178 5891 c-53 -11 -85 -35 -98 -76 -14 -44 -1 -91 36 -126 25 -24
28 -24 197 -21 123 2 193 -1 247 -12 86 -17 106 -10 140 47 30 48 26 91 -12
133 -30 32 -41 36 -123 49 -92 15 -321 18 -387 6z"/>
<path d="M3330 5663 c-14 -2 -49 -9 -78 -14 l-53 -11 3 -55 3 -55 238 -1 237
-2 0 57 c0 65 4 62 -105 78 -69 9 -195 11 -245 3z"/>
<path d="M2433 5620 c-40 -4 -95 -13 -123 -20 l-50 -12 0 -75 c0 -57 3 -74 13
-70 7 2 96 14 197 26 102 12 204 24 228 27 l43 5 -3 52 c-3 50 -4 51 -38 58
-64 12 -194 17 -267 9z"/>
<path d="M4252 5620 c-101 -11 -102 -11 -102 -67 l0 -48 208 -23 c114 -13 222
-26 240 -29 l32 -5 0 70 0 70 -45 11 c-44 11 -216 32 -245 29 -8 0 -48 -4 -88
-8z"/>
<path d="M3100 5439 c-229 -9 -482 -32 -705 -64 -174 -25 -451 -77 -461 -87
-6 -7 21 -921 36 -1208 36 -681 110 -1128 224 -1358 31 -64 34 -67 68 -66 19
1 47 4 62 8 l27 7 -19 27 c-35 49 -89 166 -115 247 -94 300 -142 736 -167
1530 -6 193 -14 435 -18 538 -4 104 -5 190 -2 192 13 8 270 56 400 74 728 104
1591 88 2269 -41 l164 -31 -7 -221 c-17 -567 -27 -835 -36 -996 -39 -653 -114
-1044 -239 -1252 -43 -70 -42 -72 32 -82 l48 -7 38 83 c117 250 186 678 221
1363 15 305 41 1187 35 1193 -9 10 -288 62 -460 87 -439 63 -904 84 -1395 64z"/>
<path d="M2695 5211 c-85 -11 -166 -51 -224 -110 -58 -60 -81 -119 -81 -210 0
-159 105 -218 265 -149 33 14 100 42 149 63 l88 37 222 9 c307 12 487 41 562
88 17 11 16 12 -6 7 -69 -17 -253 -17 -389 -2 -178 20 -356 20 -437 1 -34 -8
-96 -28 -138 -45 -100 -39 -116 -39 -116 1 0 38 40 79 96 98 73 26 357 26 565
1 280 -34 504 -18 779 55 135 36 260 97 260 127 0 4 -15 2 -33 -6 -111 -46
-358 -71 -547 -55 -63 5 -191 21 -285 35 -313 46 -389 54 -530 58 -77 3 -167
1 -200 -3z"/>
<path d="M3290 4715 c-36 -7 -108 -28 -160 -47 l-95 -33 -3 -64 c-2 -48 1 -68
14 -82 16 -18 17 -18 34 3 38 48 134 5 170 -76 14 -31 16 -44 7 -54 -15 -19
-82 -10 -109 14 -19 18 -19 18 -13 -11 4 -17 14 -40 21 -52 12 -19 18 -21 40
-13 14 6 67 10 117 11 118 0 161 14 165 52 2 16 -1 42 -7 58 -13 37 0 37 22 0
32 -54 20 -99 -34 -135 -24 -15 -26 -20 -16 -46 13 -34 -2 -77 -30 -87 -189
-65 -415 -211 -459 -295 -19 -37 -16 -41 24 -27 17 6 45 9 64 7 33 -3 33 -3
-24 -30 -73 -34 -153 -108 -186 -173 -34 -67 -41 -169 -18 -250 10 -32 21 -54
25 -49 5 5 17 34 26 64 17 51 19 53 28 30 87 -223 235 -357 434 -396 l32 -6
-39 41 c-43 45 -65 107 -56 155 18 89 100 168 256 246 104 52 166 109 177 161
3 16 9 32 14 34 14 9 22 -64 11 -105 -5 -22 -7 -40 -3 -40 4 0 26 16 49 36 71
60 162 280 162 391 0 35 8 41 28 21 18 -18 16 93 -3 165 -15 59 -62 161 -97
210 -19 27 -19 27 2 27 21 0 21 1 -6 50 -15 27 -51 79 -81 115 -29 35 -53 71
-53 79 0 9 9 24 21 35 l21 19 -32 17 c-37 19 -164 45 -222 45 -34 0 -39 -3
-33 -17 14 -35 17 -111 5 -147 -17 -53 -25 -44 -22 26 2 45 -2 73 -15 98 -21
42 -51 46 -153 25z m70 -53 c0 -18 -26 -32 -57 -32 -38 0 -43 12 -10 28 26 13
67 15 67 4z"/>
<path d="M2236 4649 c-59 -52 -58 -133 4 -199 l28 -30 234 0 234 0 26 28 c14
15 31 37 37 49 16 31 14 105 -5 131 -33 48 -57 52 -298 52 l-225 0 -35 -31z"/>
<path d="M4350 4620 c-163 -34 -260 -154 -247 -306 4 -51 17 -90 65 -192 120
-253 251 -578 283 -701 23 -90 24 -130 4 -178 l-15 -36 -48 44 c-49 45 -90 67
-228 119 -114 43 -202 98 -249 158 -22 28 -42 51 -45 51 -3 1 -14 -12 -24 -28
-22 -32 -121 -102 -179 -126 l-39 -16 7 31 7 31 -99 -52 c-183 -98 -227 -142
-226 -229 1 -63 25 -105 80 -140 58 -37 144 -56 318 -70 122 -9 168 -16 235
-36 11 -3 20 7 28 29 7 19 24 44 39 58 23 21 25 22 19 4 -4 -11 -12 -45 -18
-75 -25 -134 51 -212 242 -246 119 -21 125 -20 184 36 97 92 146 215 146 366
0 190 -22 282 -135 569 -58 146 -88 214 -218 500 -51 113 -59 183 -28 248 50
102 186 145 296 93 94 -44 135 -111 135 -222 0 -59 -3 -70 -30 -100 -16 -19
-39 -53 -51 -76 -29 -57 -22 -146 25 -305 19 -68 42 -164 49 -215 17 -112 20
-102 42 147 9 94 20 206 25 250 41 338 27 438 -73 538 -68 68 -175 98 -277 77z"/>
<path d="M3077 4427 c-64 -17 -85 -19 -118 -10 l-40 11 22 -24 c28 -29 59 -30
147 -5 37 11 81 23 97 26 27 7 28 8 10 15 -27 11 -29 11 -118 -13z"/>
<path d="M2301 4343 c0 -35 5 -41 62 -79 68 -44 82 -73 48 -96 -21 -15 -21
-15 4 -26 31 -14 33 -52 4 -70 -16 -10 -18 -17 -10 -25 20 -20 11 -45 -33 -89
l-43 -44 13 -194 c8 -107 22 -294 32 -415 l17 -220 40 -3 c22 -2 70 2 108 9
55 10 68 16 72 33 2 12 20 228 40 481 19 253 38 484 41 513 l6 52 -45 0 c-65
0 -78 19 -48 75 23 44 87 115 103 115 4 0 8 5 8 10 0 6 -77 10 -210 10 l-210
0 1 -37z"/>
<path d="M2693 4298 c-35 -38 -63 -79 -63 -92 0 -12 121 -2 148 13 29 16 29
63 0 91 -30 28 -49 25 -85 -12z"/>
<path d="M2214 4254 c-14 -20 -15 -32 -6 -60 8 -27 7 -41 -4 -63 -17 -35 -10
-77 17 -94 11 -7 19 -21 19 -32 0 -29 28 -65 49 -65 10 0 38 19 61 43 l43 42
-41 9 -42 9 45 28 c25 16 45 32 45 36 0 5 -23 17 -52 29 l-51 21 47 18 c26 10
45 23 43 28 -2 6 -25 26 -51 44 -59 41 -99 43 -122 7z"/>
<path d="M2711 3828 c-7 -79 -14 -150 -17 -159 -3 -11 9 -25 38 -42 l42 -25
17 37 c9 21 30 53 47 72 16 19 35 55 42 79 6 25 22 62 36 82 30 46 30 48 1 48
-20 0 -139 30 -177 45 -14 5 -18 -16 -29 -137z"/>
<path d="M2871 3266 c-15 -52 -96 -173 -137 -205 -32 -25 -66 -27 -99 -5 -22
14 -31 14 -100 0 -42 -9 -88 -13 -101 -10 -77 19 -123 -56 -68 -111 13 -12 14
-19 5 -28 -20 -20 -13 -82 12 -105 13 -12 28 -22 35 -22 6 0 9 -6 6 -13 -9
-23 35 -67 66 -67 36 0 227 36 300 57 123 35 380 149 492 219 l47 30 -65 12
c-147 28 -283 130 -369 277 -8 14 -12 9 -24 -29z"/>
<path d="M3005 2664 c-27 -2 -117 -8 -200 -14 -290 -20 -585 -59 -874 -115
-95 -19 -175 -36 -178 -38 -2 -2 9 -76 25 -163 25 -141 27 -160 13 -165 -9 -3
-58 -14 -108 -24 -56 -10 -93 -22 -93 -30 0 -14 89 -437 93 -441 1 -2 57 8
122 21 158 32 431 75 480 75 21 0 36 2 33 5 -3 3 -98 30 -211 60 -114 31 -216
59 -229 64 -43 16 469 103 792 135 607 60 1259 45 1880 -44 194 -28 458 -75
466 -83 2 -2 -83 -27 -188 -56 -106 -29 -211 -58 -233 -66 l-40 -13 40 -1 c55
-2 258 -34 444 -70 85 -17 156 -30 157 -28 2 2 94 445 94 452 0 1 -43 11 -96
21 -55 10 -98 24 -101 31 -3 7 7 81 22 164 14 83 25 153 23 155 -14 13 -490
93 -708 119 -332 38 -488 47 -930 50 -245 1 -467 1 -495 -1z m133 -207 c3 -16
-1 -17 -32 -11 -35 6 -66 -7 -66 -27 0 -5 25 -25 55 -44 59 -38 75 -70 57
-110 -21 -46 -152 -60 -152 -16 0 16 7 17 49 13 77 -7 83 35 11 76 -53 30 -73
62 -61 95 14 35 38 47 91 44 34 -1 46 -6 48 -20z m222 -97 l0 -120 -25 0 -25
0 0 120 0 120 25 0 25 0 0 -120z m158 33 l29 -88 29 88 c26 82 30 87 56 87
l28 0 0 -120 c0 -113 -1 -120 -20 -120 -17 0 -19 8 -22 88 l-3 87 -29 -83
c-24 -71 -31 -83 -49 -80 -16 2 -27 21 -48 83 l-27 80 -1 -87 c-1 -81 -3 -88
-21 -88 -19 0 -20 7 -20 120 l0 120 34 0 c34 0 34 0 64 -87z m319 77 c31 0 53
-26 53 -63 0 -42 -34 -77 -76 -77 -34 0 -44 -16 -44 -73 0 -24 -4 -28 -22 -25
-22 3 -23 5 -19 118 1 63 5 119 8 124 3 4 22 6 42 2 20 -3 46 -6 58 -6z
m-1028 -119 c9 -93 17 -111 51 -111 40 0 45 16 42 120 -3 93 -2 100 16 100 16
0 20 -10 25 -67 4 -38 7 -83 7 -101 0 -79 -102 -112 -161 -53 -23 24 -29 38
-29 74 0 24 -3 65 -6 90 -6 42 -5 46 17 49 13 1 25 1 26 -2 1 -3 7 -47 12 -99z
m1285 -5 c20 -63 36 -119 36 -126 0 -6 -10 -10 -22 -8 -15 2 -25 13 -32 36 -9
31 -11 32 -61 32 -49 0 -53 -2 -65 -30 -7 -18 -20 -30 -31 -30 -15 0 -12 13
28 103 61 138 60 137 87 137 22 0 28 -11 60 -114z m-1381 90 c7 -17 -13 -26
-54 -26 l-30 0 6 -62 c3 -35 8 -82 11 -104 4 -38 3 -42 -20 -46 -21 -4 -25 0
-30 31 -3 20 -6 52 -6 72 0 20 -3 51 -6 68 -6 29 -9 31 -50 31 -31 0 -44 4
-44 14 0 10 19 16 68 21 37 3 76 7 87 9 46 7 63 5 68 -8z m1527 -73 c13 -49
25 -92 28 -96 2 -5 21 27 41 70 48 102 51 107 64 94 7 -7 -6 -45 -39 -120 -44
-99 -52 -110 -75 -111 -25 0 -27 6 -57 119 -18 65 -32 121 -32 125 0 3 11 6
24 6 21 0 25 -9 46 -87z m231 52 c3 -2 0 -55 -7 -117 -7 -62 -13 -116 -13
-119 -1 -3 -12 -4 -26 -1 -18 3 -24 9 -21 21 3 9 7 54 11 101 4 47 9 93 11
103 5 16 34 24 45 12z m-2031 -24 c15 -28 12 -67 -5 -81 -22 -18 -19 -33 16
-66 17 -16 35 -37 40 -46 8 -15 5 -18 -20 -18 -24 0 -36 9 -62 45 -45 62 -62
60 -57 -7 3 -47 1 -53 -18 -56 -19 -3 -22 5 -35 117 -17 137 -22 128 73 130
47 1 59 -2 68 -18z m2239 -5 c76 -24 92 -131 31 -199 -26 -30 -33 -32 -88 -31
-32 1 -70 4 -84 7 l-25 7 14 107 c8 60 16 114 18 120 5 14 75 8 134 -11z
m-2450 -78 c20 -144 19 -163 -6 -166 -14 -2 -23 2 -23 10 0 7 -7 60 -15 117
-12 84 -12 106 -3 113 29 18 36 6 47 -74z m-123 -65 c-21 -123 -22 -128 -47
-131 -22 -3 -32 8 -86 105 -34 59 -59 111 -57 115 3 4 14 8 24 8 13 0 34 -27
68 -87 56 -97 49 -100 73 37 12 73 15 80 33 80 10 0 8 -29 -8 -127z m2843 -1
c12 -59 25 -117 27 -128 5 -19 2 -21 -20 -17 -19 4 -27 13 -32 38 -5 27 -12
34 -36 39 -58 11 -78 7 -90 -19 -6 -14 -20 -25 -30 -25 -22 0 -23 -3 58 136
47 80 56 91 77 87 22 -4 26 -15 46 -111z"/>
<path d="M3780 2401 c0 -33 3 -41 19 -41 48 0 56 73 9 78 -27 3 -28 1 -28 -37z"/>
<path d="M4002 2370 l-19 -45 28 -9 c16 -5 32 -6 36 -3 3 4 -1 28 -10 54 l-15
48 -20 -45z"/>
<path d="M2340 2341 c0 -33 3 -41 19 -41 48 0 56 73 9 78 -27 3 -28 1 -28 -37z"/>
<path d="M4587 2338 c-3 -18 -9 -59 -13 -90 l-6 -58 45 0 c57 0 77 24 77 90 0
54 -7 65 -43 79 -44 17 -54 13 -60 -21z"/>
<path d="M4861 2263 c-11 -23 -21 -44 -21 -47 0 -2 15 -6 34 -8 34 -4 35 -3
29 27 -14 70 -18 73 -42 28z"/>
<path d="M3353 1896 c7 -101 43 -231 77 -276 l19 -25 31 67 c34 72 59 190 60
276 l0 52 -97 0 -96 0 6 -94z"/>
<path d="M2575 1941 l-50 -6 3 -65 c6 -108 64 -292 100 -314 10 -6 38 49 58
114 16 52 36 243 28 265 -6 16 -43 17 -139 6z"/>
<path d="M4174 1864 c4 -49 12 -114 17 -144 13 -66 58 -172 70 -164 34 21 90
190 103 311 l7 61 -38 6 c-21 3 -67 8 -102 12 l-64 6 7 -88z"/>
<path d="M2110 858 c0 -317 1 -324 24 -373 49 -107 141 -150 300 -143 108 5
173 33 228 98 55 64 58 86 58 429 l0 312 -72 -3 -73 -3 -5 -310 c-6 -345 -6
-346 -73 -379 -49 -22 -134 -21 -174 4 -65 39 -68 52 -71 388 l-3 302 -70 0
-69 0 0 -322z"/>
<path d="M2890 765 l0 -415 75 0 75 0 0 190 0 190 145 0 145 0 0 60 0 60 -145
0 -145 0 0 100 0 100 195 0 195 0 0 65 0 65 -270 0 -270 0 0 -415z"/>
<path d="M3568 1174 c-5 -4 -8 -191 -8 -416 l0 -408 75 0 75 0 0 149 0 148 93
6 c199 12 293 89 305 249 9 131 -34 206 -145 249 -49 19 -82 23 -223 27 -91 2
-168 1 -172 -4z m318 -143 c53 -24 74 -55 74 -109 0 -93 -54 -135 -175 -136
l-70 -1 -3 133 -3 132 68 0 c45 0 82 -7 109 -19z"/>
<path d="M4240 765 l0 -415 260 0 260 0 0 65 0 65 -185 0 -185 0 0 125 0 125
135 0 135 0 0 60 0 60 -135 0 -135 0 0 100 0 100 190 0 190 0 0 65 0 65 -265
0 -265 0 0 -415z"/>
</g>
</svg>
