<svg version="1.1" id="Layer_1" xmlns="http://www.w3.org/2000/svg" xmlns:xlink="http://www.w3.org/1999/xlink" x="0px" y="0px"
	 width="100%" viewBox="0 0 200 200" enable-background="new 0 0 200 200" xml:space="preserve">
<path fill="transparent" opacity="1.000000" stroke="none" 
	d="
M109.000000,201.000000 
	C72.689072,201.000000 36.878147,201.000000 1.033611,201.000000 
	C1.033611,134.397446 1.033611,67.794861 1.033611,1.096142 
	C67.560760,1.096142 134.121704,1.096142 200.841324,1.096142 
	C200.841324,67.666367 200.841324,134.333145 200.841324,201.000000 
	C170.461807,201.000000 139.980911,201.000000 109.000000,201.000000 
M124.421051,173.830902 
	C138.075790,165.903931 151.613373,157.764679 165.433441,150.137299 
	C172.617203,146.172531 175.785995,140.412323 175.790817,132.533600 
	C175.803741,111.384735 175.686600,90.235069 175.844772,69.087402 
	C175.899002,61.836353 172.704666,56.674751 166.748917,53.182255 
	C148.130096,42.264023 129.371201,31.584423 110.768303,20.639458 
	C104.315971,16.843246 98.276123,16.451906 91.665474,20.353130 
	C72.870834,31.444624 53.902905,42.242046 35.054996,53.243973 
	C29.224367,56.647434 26.195665,61.703846 26.230728,68.686050 
	C26.339443,90.333954 26.220842,111.982925 26.288851,133.631165 
	C26.308668,139.939377 28.505386,145.246674 34.249630,148.613220 
	C37.752785,150.666321 41.182602,152.845261 44.697319,154.877823 
	C60.399395,163.958328 76.126747,172.995148 91.830948,182.071991 
	C98.124771,185.709763 104.280334,185.875671 110.565536,181.912338 
	C114.879128,179.192261 119.411728,176.819489 124.421051,173.830902 
z"/>
<path fill="#ffffff" opacity="1.000000" stroke="none" 
	d="
M124.133743,174.061188 
	C119.411728,176.819489 114.879128,179.192261 110.565536,181.912338 
	C104.280334,185.875671 98.124771,185.709763 91.830948,182.071991 
	C76.126747,172.995148 60.399395,163.958328 44.697319,154.877823 
	C41.182602,152.845261 37.752785,150.666321 34.249630,148.613220 
	C28.505386,145.246674 26.308668,139.939377 26.288851,133.631165 
	C26.220842,111.982925 26.339443,90.333954 26.230728,68.686050 
	C26.195665,61.703846 29.224367,56.647434 35.054996,53.243973 
	C53.902905,42.242046 72.870834,31.444624 91.665474,20.353130 
	C98.276123,16.451906 104.315971,16.843246 110.768303,20.639458 
	C129.371201,31.584423 148.130096,42.264023 166.748917,53.182255 
	C172.704666,56.674751 175.899002,61.836353 175.844772,69.087402 
	C175.686600,90.235069 175.803741,111.384735 175.790817,132.533600 
	C175.785995,140.412323 172.617203,146.172531 165.433441,150.137299 
	C151.613373,157.764679 138.075790,165.903931 124.133743,174.061188 
M122.263756,83.382202 
	C124.589409,83.259216 126.915070,83.136230 129.824417,82.955971 
	C130.209549,83.021400 130.594696,83.086830 131.603851,83.600426 
	C132.981522,83.917030 134.359177,84.233635 135.940933,84.597145 
	C135.940933,98.637581 135.911606,112.355789 135.988815,126.073402 
	C135.996094,127.366669 136.673508,128.656143 137.794830,130.268723 
	C140.509445,130.507767 143.224045,130.746811 146.547897,131.095688 
	C147.051315,130.837326 147.554749,130.578964 148.105225,130.099503 
	C148.105225,130.099503 148.330887,130.112732 149.073090,129.877609 
	C149.335846,128.285400 149.814255,126.694794 149.826172,125.100716 
	C149.900620,115.133118 149.872192,105.164742 149.875320,95.196625 
	C149.878723,84.322075 149.877533,84.322220 160.504532,83.889908 
	C161.167557,83.862938 162.014862,84.079147 162.455414,83.751114 
	C163.410645,83.039833 164.838699,82.067413 164.862793,81.169289 
	C164.935867,78.446251 164.432495,75.707748 164.023361,72.908340 
	C164.023361,72.908340 164.099106,72.782967 164.086395,72.262009 
	C163.788040,72.141716 163.489685,72.021423 163.087280,71.971466 
	C163.087280,71.971466 163.028656,71.860405 162.418442,71.289101 
	C149.502380,71.201508 136.586365,71.102638 123.670158,71.064362 
	C123.108261,71.062691 122.544708,71.617477 121.969582,71.986008 
	C121.969582,71.986008 121.908783,71.943825 121.137283,72.053101 
	C121.162842,75.422218 121.188400,78.791328 121.474129,82.551086 
	C121.474129,82.551086 121.839546,82.845642 122.263756,83.382202 
M115.849541,81.428749 
	C115.932198,80.111465 116.075424,78.794716 116.087242,77.476799 
	C116.145409,70.990089 116.133110,70.985229 109.622253,70.982094 
	C99.347176,70.977150 89.072029,70.960541 78.797058,70.993126 
	C76.538010,71.000290 74.279549,71.192932 71.438889,71.327797 
	C71.818382,75.213326 72.147156,78.579659 72.828056,82.324486 
	C72.897987,82.481979 72.967918,82.639465 73.542542,83.426254 
	C76.780655,83.274498 80.018768,83.122742 83.841805,82.929146 
	C84.225281,83.004814 84.608749,83.080482 85.570633,83.669304 
	C86.040253,85.315559 86.901680,86.958130 86.917198,88.608658 
	C87.036118,101.255386 87.079292,113.904671 86.936630,126.550797 
	C86.898605,129.921799 87.824631,131.638779 91.426315,131.203369 
	C92.410309,131.084427 93.438858,131.066086 94.416656,131.208984 
	C99.358681,131.931198 101.175186,130.082428 101.026588,124.898315 
	C100.683411,112.926125 101.058640,100.934830 100.848381,88.956444 
	C100.780876,85.110413 101.787788,83.607193 105.857224,83.776154 
	C108.936592,83.903999 112.061394,82.937584 115.095718,82.208183 
	C115.095718,82.208183 115.297760,82.045074 115.849541,81.428749 
z"/>
<path fill="transparent" opacity="1.000000" stroke="none" 
	d="
M130.979828,83.152252 
	C130.594696,83.086830 130.209549,83.021400 129.154755,82.805557 
	C126.269913,82.718636 124.054726,82.782143 121.839546,82.845642 
	C121.839546,82.845642 121.474129,82.551086 121.525589,81.923035 
	C121.687630,78.177933 121.798210,75.060883 121.908783,71.943825 
	C121.908783,71.943825 121.969582,71.986008 122.443275,71.983810 
	C136.287537,71.941208 149.658096,71.900810 163.028656,71.860405 
	C163.028656,71.860405 163.087280,71.971466 163.220032,72.146423 
	C163.531860,72.587959 163.780640,72.741821 164.099106,72.782967 
	C164.099106,72.782967 164.023361,72.908340 164.028778,73.345390 
	C163.878464,76.535164 163.722748,79.287880 163.551361,82.317368 
	C159.801437,82.519089 156.039459,82.983482 152.299484,82.846619 
	C148.781418,82.717873 148.192123,84.382179 148.216049,87.363152 
	C148.330460,101.612404 148.306000,115.862762 148.330902,130.112732 
	C148.330887,130.112732 148.105225,130.099503 147.780304,130.154373 
	C146.949799,130.468109 146.444229,130.726990 145.938660,130.985855 
	C143.224045,130.746811 140.509445,130.507767 137.373230,129.643860 
	C136.951630,113.725769 136.951630,98.432526 136.951630,83.152252 
	C134.590866,83.152252 132.785339,83.152252 130.979828,83.152252 
z"/>
<path fill="transparent" opacity="1.000000" stroke="none" 
	d="
M84.992226,83.156151 
	C84.608749,83.080482 84.225281,83.004814 83.245926,82.799255 
	C79.445984,82.711891 76.241913,82.754425 73.037849,82.796959 
	C72.967918,82.639465 72.897987,82.481979 72.929558,81.941925 
	C73.031059,78.503746 73.031059,75.448120 73.031059,72.346764 
	C87.304207,72.346764 100.974380,72.346764 115.297760,72.346764 
	C115.297760,75.819374 115.297760,78.932228 115.297760,82.045074 
	C115.297760,82.045074 115.095718,82.208183 114.771500,82.389114 
	C110.962036,82.599976 107.476631,82.664909 103.991577,82.649887 
	C100.556305,82.635078 99.166298,83.913315 99.244499,87.700081 
	C99.505028,100.316193 99.403130,112.941818 99.256248,125.561661 
	C99.238441,127.090965 98.485893,129.522568 97.413940,129.976059 
	C91.837448,132.335220 88.496819,129.825317 88.509995,123.722626 
	C88.535789,111.769989 88.613846,99.817001 88.537476,87.865013 
	C88.523300,85.646492 89.247108,82.392670 84.992226,83.156151 
z"/>
<path fill="#ffffff" opacity="1.000000" stroke="none" 
	d="
M85.281433,83.412727 
	C89.247108,82.392670 88.523300,85.646492 88.537476,87.865013 
	C88.613846,99.817001 88.535789,111.769989 88.509995,123.722626 
	C88.496819,129.825317 91.837448,132.335220 97.413940,129.976059 
	C98.485893,129.522568 99.238441,127.090965 99.256248,125.561661 
	C99.403130,112.941818 99.505028,100.316193 99.244499,87.700081 
	C99.166298,83.913315 100.556305,82.635078 103.991577,82.649887 
	C107.476631,82.664909 110.962036,82.599976 114.806633,82.514099 
	C112.061394,82.937584 108.936592,83.903999 105.857224,83.776154 
	C101.787788,83.607193 100.780876,85.110413 100.848381,88.956444 
	C101.058640,100.934830 100.683411,112.926125 101.026588,124.898315 
	C101.175186,130.082428 99.358681,131.931198 94.416656,131.208984 
	C93.438858,131.066086 92.410309,131.084427 91.426315,131.203369 
	C87.824631,131.638779 86.898605,129.921799 86.936630,126.550797 
	C87.079292,113.904671 87.036118,101.255386 86.917198,88.608658 
	C86.901680,86.958130 86.040253,85.315559 85.281433,83.412727 
z"/>
<path fill="#ffffff" opacity="1.000000" stroke="none" 
	d="
M148.701996,129.995178 
	C148.306000,115.862762 148.330460,101.612404 148.216049,87.363152 
	C148.192123,84.382179 148.781418,82.717873 152.299484,82.846619 
	C156.039459,82.983482 159.801437,82.519089 163.551361,82.317368 
	C163.722748,79.287880 163.878464,76.535164 164.093933,73.378860 
	C164.432495,75.707748 164.935867,78.446251 164.862793,81.169289 
	C164.838699,82.067413 163.410645,83.039833 162.455414,83.751114 
	C162.014862,84.079147 161.167557,83.862938 160.504532,83.889908 
	C149.877533,84.322220 149.878723,84.322075 149.875320,95.196625 
	C149.872192,105.164742 149.900620,115.133118 149.826172,125.100716 
	C149.814255,126.694794 149.335846,128.285400 148.701996,129.995178 
z"/>
<path fill="#ffffff" opacity="1.000000" stroke="none" 
	d="
M115.573654,81.736908 
	C115.297760,78.932228 115.297760,75.819374 115.297760,72.346764 
	C100.974380,72.346764 87.304207,72.346764 73.031059,72.346764 
	C73.031059,75.448120 73.031059,78.503746 72.753494,81.752686 
	C72.147156,78.579659 71.818382,75.213326 71.438889,71.327797 
	C74.279549,71.192932 76.538010,71.000290 78.797058,70.993126 
	C89.072029,70.960541 99.347176,70.977150 109.622253,70.982094 
	C116.133110,70.985229 116.145409,70.990089 116.087242,77.476799 
	C116.075424,78.794716 115.932198,80.111465 115.573654,81.736908 
z"/>
<path fill="#ffffff" opacity="1.000000" stroke="none" 
	d="
M131.291840,83.376343 
	C132.785339,83.152252 134.590866,83.152252 136.951630,83.152252 
	C136.951630,98.432526 136.951630,113.725769 136.995728,129.483200 
	C136.673508,128.656143 135.996094,127.366669 135.988815,126.073402 
	C135.911606,112.355789 135.940933,98.637581 135.940933,84.597145 
	C134.359177,84.233635 132.981522,83.917030 131.291840,83.376343 
z"/>
<path fill="#ffffff" opacity="1.000000" stroke="none" 
	d="
M162.723541,71.574753 
	C149.658096,71.900810 136.287537,71.941208 122.449448,71.947327 
	C122.544708,71.617477 123.108261,71.062691 123.670158,71.064362 
	C136.586365,71.102638 149.502380,71.201508 162.723541,71.574753 
z"/>
<path fill="#ffffff" opacity="1.000000" stroke="none" 
	d="
M121.523033,71.998459 
	C121.798210,75.060883 121.687630,78.177933 121.395508,81.727722 
	C121.188400,78.791328 121.162842,75.422218 121.523033,71.998459 
z"/>
<path fill="#ffffff" opacity="1.000000" stroke="none" 
	d="
M73.290192,83.111603 
	C76.241913,82.754425 79.445984,82.711891 82.953461,82.820175 
	C80.018768,83.122742 76.780655,83.274498 73.290192,83.111603 
z"/>
<path fill="#ffffff" opacity="1.000000" stroke="none" 
	d="
M122.051651,83.113922 
	C124.054726,82.782143 126.269913,82.718636 128.862915,82.834190 
	C126.915070,83.136230 124.589409,83.259216 122.051651,83.113922 
z"/>
<path fill="#ffffff" opacity="1.000000" stroke="none" 
	d="
M146.243286,131.040771 
	C146.444229,130.726990 146.949799,130.468109 147.756775,130.264923 
	C147.554749,130.578964 147.051315,130.837326 146.243286,131.040771 
z"/>
<path fill="#ffffff" opacity="1.000000" stroke="none" 
	d="
M164.092743,72.522491 
	C163.780640,72.741821 163.531860,72.587959 163.272064,72.111259 
	C163.489685,72.021423 163.788040,72.141716 164.092743,72.522491 
z"/>
</svg>