<?xml version="1.0" standalone="no"?>
<!DOCTYPE svg PUBLIC "-//W3C//DTD SVG 20010904//EN"
 "http://www.w3.org/TR/2001/REC-SVG-20010904/DTD/svg10.dtd">
<svg version="1.0" xmlns="http://www.w3.org/2000/svg"
 width="200.000000pt" height="200.000000pt" viewBox="0 0 200.000000 200.000000"
 preserveAspectRatio="xMidYMid meet">

<g transform="translate(0.000000,200.000000) scale(0.100000,-0.100000)"
fill="#ffffff" stroke="none">
<path d="M951 1839 c-50 -10 -570 -301 -627 -351 -18 -16 -47 -57 -64 -90
l-30 -61 0 -346 0 -346 28 -60 c16 -33 44 -74 64 -91 19 -16 158 -101 310
-187 238 -137 284 -159 340 -169 53 -9 74 -8 121 6 71 21 569 305 620 355 21
20 50 61 65 91 l27 55 3 298 c5 394 -6 455 -100 544 -45 43 -548 329 -611 348
-56 16 -80 17 -146 4z m67 -257 l2 -192 -190 0 -190 0 0 -84 c0 -84 0 -84 28
-90 15 -3 71 -5 125 -3 l97 2 0 -297 0 -298 90 0 90 0 2 298 c3 276 4 297 21
296 9 -1 91 -2 182 -3 l165 -1 0 -75 0 -75 -125 0 -125 0 0 -275 0 -275 -85 0
-85 0 0 -150 c0 -170 0 -170 -71 -146 -57 20 -545 299 -583 334 -64 60 -66 72
-66 441 0 314 1 337 20 376 11 23 32 53 47 67 34 32 542 324 587 337 63 19 61
24 64 -187z"/>
</g>
</svg>
