<?xml version="1.0" standalone="no"?>
<!DOCTYPE svg PUBLIC "-//W3C//DTD SVG 20010904//EN"
 "http://www.w3.org/TR/2001/REC-SVG-20010904/DTD/svg10.dtd">
<svg version="1.0" xmlns="http://www.w3.org/2000/svg"
 width="530.000000pt" height="290.000000pt" viewBox="0 0 530.000000 290.000000"
 preserveAspectRatio="xMidYMid meet">

<g transform="translate(0.000000,290.000000) scale(0.100000,-0.100000)"
fill="#ffffff" stroke="none">
<path d="M3251 2889 c-87 -17 -202 -61 -261 -101 -33 -22 -63 -44 -66 -50 -3
-5 -48 -166 -98 -356 l-92 -347 -126 -3 -126 -3 -47 -192 c-25 -106 -49 -200
-51 -209 -5 -16 5 -18 115 -18 106 0 121 -2 121 -16 0 -15 -68 -284 -160 -639
-58 -222 -220 -862 -220 -868 0 -14 413 -7 453 7 97 35 142 104 192 294 31
119 305 1202 305 1207 0 1 65 4 144 7 212 7 209 4 270 241 33 124 32 140 0
166 -24 19 -40 21 -155 21 -116 0 -129 2 -129 17 0 10 41 175 91 367 64 247
89 358 85 381 -9 47 -53 83 -115 95 -61 11 -68 11 -130 -1z"/>
<path d="M2118 2796 c-98 -40 -181 -115 -214 -193 -22 -50 -18 -129 8 -175 46
-82 174 -121 319 -99 45 7 106 23 135 36 66 29 146 103 174 159 38 80 18 185
-46 235 -82 64 -266 83 -376 37z"/>
<path d="M4594 2300 c-60 -12 -215 -65 -314 -108 -126 -53 -214 -107 -279
-171 -54 -52 -59 -60 -65 -111 -10 -94 16 -163 76 -200 143 -87 522 -15 663
126 33 33 63 83 107 173 82 170 90 254 28 286 -32 16 -144 19 -216 5z"/>
<path d="M810 2047 c-105 -33 -138 -48 -222 -105 -268 -182 -489 -526 -563
-878 -20 -95 -23 -328 -6 -424 15 -81 47 -181 77 -241 49 -98 182 -216 313
-278 178 -84 443 -63 632 49 82 48 86 57 178 303 105 283 83 307 -169 188
-184 -87 -238 -105 -302 -99 -75 8 -134 63 -158 147 -29 106 1 334 69 520 63
173 188 325 293 356 64 19 91 19 154 0 54 -16 85 -36 165 -109 72 -65 130 -93
163 -78 14 6 32 24 40 41 18 34 36 173 36 277 0 62 -4 76 -28 110 -63 86 -179
167 -304 212 -106 38 -262 41 -368 9z"/>
<path d="M1885 2015 c-62 -22 -98 -69 -133 -176 -36 -107 -373 -1458 -391
-1564 -16 -96 -2 -142 54 -170 35 -18 64 -20 248 -23 114 -2 207 -1 207 3 0 4
40 165 89 359 49 193 158 621 241 951 83 330 153 608 156 618 5 16 -10 17
-213 17 -161 -1 -228 -5 -258 -15z"/>
<path d="M3946 1095 c-33 -13 -114 -57 -180 -97 -158 -95 -554 -359 -600 -399
l-36 -31 0 -169 c0 -129 3 -169 13 -169 23 0 95 48 259 172 181 138 218 156
305 150 34 -3 95 -63 204 -202 103 -133 210 -243 270 -279 118 -69 392 -88
590 -38 120 29 303 96 364 132 54 31 112 96 138 154 26 59 28 197 4 253 -16
36 -17 36 -54 26 -21 -6 -77 -30 -125 -54 -112 -56 -273 -104 -350 -104 -68 0
-103 15 -145 63 -46 52 -140 251 -162 344 -34 139 -48 158 -154 208 -151 72
-239 82 -341 40z"/>
</g>
</svg>
