<?xml version="1.0" standalone="no"?>
<!DOCTYPE svg PUBLIC "-//W3C//DTD SVG 20010904//EN"
 "http://www.w3.org/TR/2001/REC-SVG-20010904/DTD/svg10.dtd">
<svg version="1.0" xmlns="http://www.w3.org/2000/svg"
 width="500.000000pt" height="500.000000pt" viewBox="0 0 500.000000 500.000000"
 preserveAspectRatio="xMidYMid meet">

<g transform="translate(0.000000,500.000000) scale(0.100000,-0.100000)"
fill="#000000" stroke="none">
<path d="M3029 3890 c-90 -72 -235 -208 -228 -214 2 -2 56 2 119 9 288 31 495
27 785 -15 169 -25 381 -71 472 -105 37 -13 69 -22 71 -20 5 4 -107 69 -241
139 -206 108 -399 178 -663 240 -211 50 -211 50 -315 -34z"/>
<path d="M3100 3539 c-234 -20 -547 -91 -749 -170 -88 -35 -244 -100 -250
-105 -5 -5 66 -91 136 -164 107 -113 106 -111 84 -162 -29 -68 -89 -295 -101
-381 -5 -43 -13 -131 -17 -195 l-6 -116 80 89 c99 109 167 171 388 348 36 29
228 157 270 181 17 9 57 32 90 51 242 141 539 254 855 324 186 42 243 49 493
63 119 6 214 15 210 18 -5 4 -55 23 -113 43 -420 143 -689 188 -1095 186 -99
-1 -223 -5 -275 -10z"/>
<path d="M380 2265 c-143 -35 -239 -105 -292 -213 -28 -57 -33 -76 -33 -142 0
-63 5 -84 29 -130 64 -124 152 -165 540 -255 37 -9 90 -27 117 -40 39 -20 50
-32 60 -63 14 -48 -6 -93 -53 -122 -43 -26 -146 -35 -248 -22 -83 12 -172 47
-283 114 l-38 23 -89 -95 -89 -95 22 -18 c42 -33 222 -116 302 -139 71 -20
102 -23 265 -23 177 0 188 1 260 28 88 32 163 81 205 134 29 37 64 121 65 156
0 30 16 19 44 -33 83 -153 274 -250 489 -250 l67 0 0 109 0 109 -67 4 c-110 7
-195 57 -229 135 -29 67 -53 63 364 63 l379 0 6 -137 c4 -75 7 -167 7 -205 l0
-68 160 0 160 0 0 308 c0 275 2 311 19 347 67 148 270 155 337 11 23 -50 24
-56 24 -353 l0 -303 160 0 160 0 1 103 0 102 17 -36 c60 -129 220 -201 413
-185 100 8 162 28 227 71 30 19 56 35 58 35 2 0 4 -20 4 -45 l0 -45 73 0 c39
0 109 -3 155 -7 l82 -6 0 204 1 204 29 -63 c103 -223 350 -372 643 -389 l97
-6 0 120 0 120 -73 6 c-132 10 -262 90 -315 194 -79 153 -29 351 113 448 56
39 170 75 237 75 l38 0 0 115 0 115 -62 0 c-205 0 -428 -83 -554 -207 -36 -35
-104 -124 -104 -136 0 -3 -12 -31 -26 -63 -19 -43 -28 -54 -35 -43 -5 8 -9 24
-9 35 0 30 -55 133 -92 170 -40 42 -153 93 -230 105 -35 5 -100 9 -145 9 l-83
0 0 -114 0 -114 77 -11 c116 -17 183 -72 183 -151 0 -20 -3 -20 -162 -14 -170
7 -283 -3 -370 -32 -60 -20 -130 -82 -160 -142 l-23 -47 -6 130 c-9 175 -37
256 -123 352 -74 82 -183 127 -336 139 -163 12 -332 -34 -417 -115 -54 -51
-103 -132 -125 -207 -12 -40 -25 -71 -29 -68 -4 2 -10 23 -14 47 -19 113 -125
243 -247 300 -333 158 -755 -29 -808 -358 -6 -39 -13 -81 -16 -95 l-6 -25 -31
37 c-60 68 -192 124 -412 172 -245 54 -308 109 -242 207 34 51 106 67 229 51
51 -7 103 -15 116 -18 22 -6 22 -6 22 118 l0 125 -46 7 c-78 10 -276 5 -334
-9z m1378 -409 c55 -28 79 -53 106 -114 33 -73 36 -72 -229 -72 -263 0 -251
-4 -215 73 36 74 74 107 152 133 57 18 125 11 186 -20z m2161 -352 c12 -11 12
-22 2 -68 -23 -102 -109 -159 -241 -159 -86 0 -123 15 -164 63 -68 81 10 164
167 179 99 9 219 2 236 -15z"/>
</g>
</svg>