<svg version="1.1" id="Layer_1" xmlns="http://www.w3.org/2000/svg" xmlns:xlink="http://www.w3.org/1999/xlink" x="0px" y="0px"
	 width="100%" viewBox="0 0 500 500" enable-background="new 0 0 500 500" xml:space="preserve">
<path fill="transparent" opacity="1.000000" stroke="none" 
	d="
M1.000005,377.000000 
	C1.000000,251.713669 1.000000,126.427330 1.000000,1.070495 
	C167.557144,1.070495 334.114319,1.070495 501.000000,1.070495 
	C501.000000,92.689049 501.000000,184.378494 500.743134,276.670959 
	C500.324127,277.380676 500.161957,277.487305 499.586731,277.477142 
	C492.545715,277.969391 485.824615,278.074005 479.306641,279.278137 
	C455.898621,283.602478 436.767670,294.139496 426.662140,317.101440 
	C425.707245,319.271240 424.740967,321.436005 423.390076,324.482300 
	C422.814331,321.917603 422.491119,320.457794 422.158722,319.000092 
	C419.929840,309.224548 414.208984,302.274353 405.661255,297.052673 
	C393.419678,289.574463 380.115631,291.202698 366.612732,291.152832 
	C366.612732,299.070374 366.612732,306.630280 366.612732,313.883698 
	C372.616028,314.994202 378.644928,315.181335 383.870148,317.326355 
	C389.559509,319.661987 393.248779,324.562744 392.680786,331.646759 
	C390.249329,331.646759 387.948334,331.632202 385.647583,331.649200 
	C373.857635,331.736298 362.045715,331.417358 350.284424,332.045288 
	C339.458893,332.623260 330.426453,337.206757 324.526337,346.832947 
	C323.824219,347.978455 322.885040,348.978668 322.055756,350.046234 
	C321.004761,346.970428 321.133362,344.217377 320.976746,341.480621 
	C320.692535,336.514740 320.786438,331.441345 319.754547,326.619995 
	C316.430908,311.091003 307.698944,300.008148 292.387177,294.428833 
	C281.412201,290.429810 270.151550,290.343475 258.860260,291.574402 
	C245.924271,292.984589 234.754501,298.368011 227.527023,309.552002 
	C223.550247,315.705780 220.902481,322.718384 217.942368,328.758484 
	C211.102356,301.492249 191.860367,288.770752 163.698761,290.088226 
	C131.170700,291.609985 112.143959,308.950806 108.815079,342.394714 
	C106.061279,339.806580 104.234947,337.075928 101.688255,335.882568 
	C93.311760,331.957397 84.853889,328.045441 76.089859,325.149567 
	C65.873268,321.773804 55.268906,319.587952 44.899158,316.651459 
	C40.613308,315.437805 38.137135,311.969391 38.199940,307.710052 
	C38.267677,303.116119 40.745026,299.089813 45.449955,298.067963 
	C50.398914,296.993103 55.608631,296.518707 60.668217,296.714935 
	C66.202362,296.929565 71.695076,298.212433 77.205566,299.029663 
	C77.205566,290.498993 77.205566,282.401093 77.205566,273.203827 
	C65.816498,273.203827 54.553162,272.030701 43.640369,273.486084 
	C28.296049,275.532471 14.964019,281.969971 8.393216,297.647736 
	C2.789753,311.017456 6.821763,329.381378 21.876783,335.909149 
	C31.407553,340.041656 41.520927,342.864532 51.449684,346.034607 
	C59.640068,348.649689 68.094551,350.502075 76.142761,353.475342 
	C81.490646,355.451019 83.378471,361.693573 79.969650,366.272125 
	C77.812752,369.169159 74.034859,371.877136 70.555809,372.595093 
	C55.804516,375.639374 41.798927,372.896057 28.846716,365.149872 
	C18.301092,358.842926 18.321136,358.807983 10.234996,368.254852 
	C9.801905,368.760834 9.446404,369.346191 8.960652,369.792023 
	C6.323442,372.212494 3.656639,374.600708 1.000005,377.000000 
M220.866943,272.906708 
	C220.866943,273.809570 220.866943,274.712402 220.866943,275.959747 
	C285.452301,205.565933 364.932007,170.190292 460.015411,169.558289 
	C421.434692,153.553513 381.540436,145.442841 339.834351,145.545883 
	C294.619049,145.657608 251.730545,155.241562 210.499756,174.615463 
	C211.848358,176.405746 212.841187,177.933121 214.038849,179.278061 
	C219.769028,185.712875 225.478638,192.169312 231.357971,198.466415 
	C233.722931,200.999420 234.511627,203.110352 233.085388,206.743225 
	C224.861084,227.691757 220.938095,249.513687 220.866943,272.906708 
M309.729279,107.151001 
	C299.556854,115.253227 289.227234,123.186653 279.726166,134.478256 
	C329.701874,126.520027 377.104492,131.847839 424.295197,145.240906 
	C424.005707,144.234055 423.158112,144.023392 422.415833,143.619263 
	C415.287201,139.738098 408.194519,135.790848 401.057190,131.925964 
	C375.952026,118.331490 348.826233,110.677612 321.034821,105.180565 
	C317.670746,104.515160 313.861053,106.102394 309.729279,107.151001 
z"/>
<path fill="transparent" opacity="1.000000" stroke="none" 
	d="
M501.000000,397.000000 
	C501.000000,431.645752 501.000000,466.291534 501.000000,500.968628 
	C334.454742,500.968628 167.909485,500.968628 1.000000,500.968628 
	C1.000000,460.646515 1.000000,420.291901 1.329505,379.558655 
	C11.126731,383.882660 20.200647,389.791992 30.144043,393.037048 
	C50.923138,399.818329 72.056396,400.265381 92.558296,391.253967 
	C102.224907,387.005127 109.393639,380.164825 112.154633,369.510834 
	C112.640724,367.635132 113.261505,365.794342 114.118134,362.946594 
	C126.942139,387.819824 148.060425,394.257446 173.175476,393.150421 
	C173.312088,392.064697 173.497055,391.264771 173.500122,390.464111 
	C173.524185,384.167572 173.513489,377.870911 173.513489,371.682465 
	C151.134354,368.204132 142.647232,362.730316 142.442093,351.927551 
	C167.523605,351.927551 192.603683,351.927551 218.260437,351.927551 
	C218.260437,365.258759 218.260437,378.345703 218.260437,391.667358 
	C229.398514,391.667358 239.959167,391.667358 250.977280,391.667358 
	C250.977280,389.668884 250.977356,387.881683 250.977249,386.094482 
	C250.976303,369.769226 250.889206,353.443359 251.005386,337.118927 
	C251.079895,326.651123 256.023224,318.727783 263.576202,316.353363 
	C277.284668,312.043854 288.693512,320.429169 288.853363,335.220490 
	C289.036987,352.210205 288.911774,369.203308 288.920502,386.194916 
	C288.921387,387.942871 288.920624,389.690796 288.920624,391.372314 
	C300.031555,391.372314 310.420197,391.372314 321.256958,391.372314 
	C321.256958,385.268646 321.256958,379.525238 321.256958,372.207214 
	C328.637634,387.196442 340.686584,391.894775 354.703369,392.960480 
	C368.545593,394.012909 381.380676,391.054810 393.008362,381.463470 
	C393.008362,385.397797 393.008362,388.305267 393.008362,391.542236 
	C403.463196,391.542236 413.533691,391.542236 424.171143,391.542236 
	C424.171143,379.404663 424.171143,367.388245 424.171143,355.371857 
	C425.637115,356.028412 426.138977,356.926086 426.711548,357.776184 
	C430.398254,363.249817 433.375183,369.426453 437.926361,374.052917 
	C455.195618,391.607758 476.872101,397.869293 501.000000,397.000000 
z"/>
<path fill="#FCFCFC" opacity="1.000000" stroke="none" 
	d="
M501.000000,396.531372 
	C476.872101,397.869293 455.195618,391.607758 437.926361,374.052917 
	C433.375183,369.426453 430.398254,363.249817 426.711548,357.776184 
	C426.138977,356.926086 425.637115,356.028412 424.171143,355.371857 
	C424.171143,367.388245 424.171143,379.404663 424.171143,391.542236 
	C413.533691,391.542236 403.463196,391.542236 393.008362,391.542236 
	C393.008362,388.305267 393.008362,385.397797 393.008362,381.463470 
	C381.380676,391.054810 368.545593,394.012909 354.703369,392.960480 
	C340.686584,391.894775 328.637634,387.196442 321.256958,372.207214 
	C321.256958,379.525238 321.256958,385.268646 321.256958,391.372314 
	C310.420197,391.372314 300.031555,391.372314 288.920624,391.372314 
	C288.920624,389.690796 288.921387,387.942871 288.920502,386.194916 
	C288.911774,369.203308 289.036987,352.210205 288.853363,335.220490 
	C288.693512,320.429169 277.284668,312.043854 263.576202,316.353363 
	C256.023224,318.727783 251.079895,326.651123 251.005386,337.118927 
	C250.889206,353.443359 250.976303,369.769226 250.977249,386.094482 
	C250.977356,387.881683 250.977280,389.668884 250.977280,391.667358 
	C239.959167,391.667358 229.398514,391.667358 218.260437,391.667358 
	C218.260437,378.345703 218.260437,365.258759 218.260437,351.927551 
	C192.603683,351.927551 167.523605,351.927551 142.442093,351.927551 
	C142.647232,362.730316 151.134354,368.204132 173.513489,371.682465 
	C173.513489,377.870911 173.524185,384.167572 173.500122,390.464111 
	C173.497055,391.264771 173.312088,392.064697 173.175476,393.150421 
	C148.060425,394.257446 126.942139,387.819824 114.118134,362.946594 
	C113.261505,365.794342 112.640724,367.635132 112.154633,369.510834 
	C109.393639,380.164825 102.224907,387.005127 92.558296,391.253967 
	C72.056396,400.265381 50.923138,399.818329 30.144043,393.037048 
	C20.200647,389.791992 11.126731,383.882660 1.329505,379.090027 
	C1.000000,378.555542 1.000000,378.111115 1.000005,377.333313 
	C3.656639,374.600708 6.323442,372.212494 8.960652,369.792023 
	C9.446404,369.346191 9.801905,368.760834 10.234996,368.254852 
	C18.321136,358.807983 18.301092,358.842926 28.846716,365.149872 
	C41.798927,372.896057 55.804516,375.639374 70.555809,372.595093 
	C74.034859,371.877136 77.812752,369.169159 79.969650,366.272125 
	C83.378471,361.693573 81.490646,355.451019 76.142761,353.475342 
	C68.094551,350.502075 59.640068,348.649689 51.449684,346.034607 
	C41.520927,342.864532 31.407553,340.041656 21.876783,335.909149 
	C6.821763,329.381378 2.789753,311.017456 8.393216,297.647736 
	C14.964019,281.969971 28.296049,275.532471 43.640369,273.486084 
	C54.553162,272.030701 65.816498,273.203827 77.205566,273.203827 
	C77.205566,282.401093 77.205566,290.498993 77.205566,299.029663 
	C71.695076,298.212433 66.202362,296.929565 60.668217,296.714935 
	C55.608631,296.518707 50.398914,296.993103 45.449955,298.067963 
	C40.745026,299.089813 38.267677,303.116119 38.199940,307.710052 
	C38.137135,311.969391 40.613308,315.437805 44.899158,316.651459 
	C55.268906,319.587952 65.873268,321.773804 76.089859,325.149567 
	C84.853889,328.045441 93.311760,331.957397 101.688255,335.882568 
	C104.234947,337.075928 106.061279,339.806580 108.815079,342.394714 
	C112.143959,308.950806 131.170700,291.609985 163.698761,290.088226 
	C191.860367,288.770752 211.102356,301.492249 217.942368,328.758484 
	C220.902481,322.718384 223.550247,315.705780 227.527023,309.552002 
	C234.754501,298.368011 245.924271,292.984589 258.860260,291.574402 
	C270.151550,290.343475 281.412201,290.429810 292.387177,294.428833 
	C307.698944,300.008148 316.430908,311.091003 319.754547,326.619995 
	C320.786438,331.441345 320.692535,336.514740 320.976746,341.480621 
	C321.133362,344.217377 321.004761,346.970428 322.055756,350.046234 
	C322.885040,348.978668 323.824219,347.978455 324.526337,346.832947 
	C330.426453,337.206757 339.458893,332.623260 350.284424,332.045288 
	C362.045715,331.417358 373.857635,331.736298 385.647583,331.649200 
	C387.948334,331.632202 390.249329,331.646759 392.680786,331.646759 
	C393.248779,324.562744 389.559509,319.661987 383.870148,317.326355 
	C378.644928,315.181335 372.616028,314.994202 366.612732,313.883698 
	C366.612732,306.630280 366.612732,299.070374 366.612732,291.152832 
	C380.115631,291.202698 393.419678,289.574463 405.661255,297.052673 
	C414.208984,302.274353 419.929840,309.224548 422.158722,319.000092 
	C422.491119,320.457794 422.814331,321.917603 423.390076,324.482300 
	C424.740967,321.436005 425.707245,319.271240 426.662140,317.101440 
	C436.767670,294.139496 455.898621,283.602478 479.306641,279.278137 
	C485.824615,278.074005 492.545715,277.969391 499.685333,277.671997 
	C500.197052,277.983673 500.595001,278.165192 500.595001,278.165192 
	C500.595001,278.165192 501.000000,278.000000 501.000000,278.000000 
	C501.000000,285.020966 501.000000,292.041901 500.652832,299.679321 
	C497.874695,300.685944 495.443695,301.076111 492.625641,301.628906 
	C482.236389,303.199280 473.376312,306.798248 466.695831,314.789124 
	C450.317810,334.379761 458.524139,367.440826 490.884949,372.275635 
	C494.266998,372.780914 497.628815,373.421936 501.000000,374.000000 
	C501.000000,381.354248 501.000000,388.708496 501.000000,396.531372 
M388.039215,366.523712 
	C389.132568,365.099518 390.500092,363.809692 391.274689,362.229279 
	C396.262177,352.053467 394.688690,348.921265 383.733154,349.108337 
	C375.380737,349.250977 366.951874,350.190674 358.749390,351.772888 
	C354.158630,352.658417 350.016785,356.044861 350.400574,361.533234 
	C350.770630,366.825470 354.605316,370.409332 359.399170,371.739319 
	C369.339752,374.497162 379.114624,374.459137 388.039215,366.523712 
M163.644730,312.678864 
	C150.805298,313.164795 141.424942,324.078247 141.780273,333.533173 
	C142.350342,333.666046 142.966049,333.933258 143.582535,333.935089 
	C157.369095,333.975983 171.156036,333.943787 184.942184,334.034943 
	C188.498871,334.058502 189.172165,332.625092 188.273453,329.391693 
	C185.449448,319.231384 176.855072,313.058167 163.644730,312.678864 
z"/>
<path fill="transparent" opacity="1.000000" stroke="none" 
	d="
M501.000000,373.531342 
	C497.628815,373.421936 494.266998,372.780914 490.884949,372.275635 
	C458.524139,367.440826 450.317810,334.379761 466.695831,314.789124 
	C473.376312,306.798248 482.236389,303.199280 493.070465,301.691956 
	C496.268219,301.728271 498.634125,301.864136 501.000000,302.000000 
	C501.000000,325.687561 501.000000,349.375122 501.000000,373.531342 
z"/>
<path fill="#CBCED2" opacity="1.000000" stroke="none" 
	d="
M501.000000,301.666687 
	C498.634125,301.864136 496.268219,301.728271 493.457520,301.529327 
	C495.443695,301.076111 497.874695,300.685944 500.652832,300.147888 
	C501.000000,300.444458 501.000000,300.888885 501.000000,301.666687 
z"/>
<path fill="#CBCED2" opacity="1.000000" stroke="none" 
	d="
M501.000000,277.750000 
	C501.000000,278.000000 500.595001,278.165192 500.595001,278.165192 
	C500.595001,278.165192 500.197052,277.983673 500.098450,277.788818 
	C500.161957,277.487305 500.324127,277.380676 500.743134,277.137024 
	C501.000000,277.000000 501.000000,277.500000 501.000000,277.750000 
z"/>
<path fill="#FCFDFD" opacity="1.000000" stroke="none" 
	d="
M220.873169,272.465454 
	C220.938095,249.513687 224.861084,227.691757 233.085388,206.743225 
	C234.511627,203.110352 233.722931,200.999420 231.357971,198.466415 
	C225.478638,192.169312 219.769028,185.712875 214.038849,179.278061 
	C212.841187,177.933121 211.848358,176.405746 210.499756,174.615463 
	C251.730545,155.241562 294.619049,145.657608 339.834351,145.545883 
	C381.540436,145.442841 421.434692,153.553513 460.015411,169.558289 
	C364.932007,170.190292 285.452301,205.565933 220.866943,275.959747 
	C220.866943,274.712402 220.866943,273.809570 220.873169,272.465454 
z"/>
<path fill="#F8F9FA" opacity="1.000000" stroke="none" 
	d="
M309.993591,106.898300 
	C313.861053,106.102394 317.670746,104.515160 321.034821,105.180565 
	C348.826233,110.677612 375.952026,118.331490 401.057190,131.925964 
	C408.194519,135.790848 415.287201,139.738098 422.415833,143.619263 
	C423.158112,144.023392 424.005707,144.234055 424.295197,145.240906 
	C377.104492,131.847839 329.701874,126.520027 279.726166,134.478256 
	C289.227234,123.186653 299.556854,115.253227 309.993591,106.898300 
z"/>
<path fill="transparent" opacity="1.000000" stroke="none" 
	d="
M387.739746,366.728882 
	C379.114624,374.459137 369.339752,374.497162 359.399170,371.739319 
	C354.605316,370.409332 350.770630,366.825470 350.400574,361.533234 
	C350.016785,356.044861 354.158630,352.658417 358.749390,351.772888 
	C366.951874,350.190674 375.380737,349.250977 383.733154,349.108337 
	C394.688690,348.921265 396.262177,352.053467 391.274689,362.229279 
	C390.500092,363.809692 389.132568,365.099518 387.739746,366.728882 
z"/>
<path fill="transparent" opacity="1.000000" stroke="none" 
	d="
M164.100830,312.640167 
	C176.855072,313.058167 185.449448,319.231384 188.273453,329.391693 
	C189.172165,332.625092 188.498871,334.058502 184.942184,334.034943 
	C171.156036,333.943787 157.369095,333.975983 143.582535,333.935089 
	C142.966049,333.933258 142.350342,333.666046 141.780273,333.533173 
	C141.424942,324.078247 150.805298,313.164795 164.100830,312.640167 
z"/>
</svg>