<svg width="40" height="29" viewBox="0 0 40 29" fill="none" xmlns="http://www.w3.org/2000/svg">
<path d="M27.9069 0.612718C27.7739 0.732435 27.3549 1.76331 26.1378 4.95571C25.26 7.25689 24.5416 9.17233 24.5416 9.21223C24.5416 9.2721 29.1506 11.3072 29.277 11.3072C29.2969 11.3072 29.4168 11.0612 29.5298 10.7552C29.6429 10.4559 30.4076 8.4607 31.2258 6.31914C32.0437 4.17756 32.8153 2.14906 32.9483 1.80988C33.2209 1.09822 33.2475 0.792285 33.0547 0.599418C32.9283 0.47305 32.8352 0.4664 30.5007 0.4664C28.08 0.4664 28.0733 0.4664 27.9069 0.612718Z" fill="white"/>
<path d="M16.3611 8.97947C16.2679 9.00609 15.0442 9.53814 13.6342 10.1633C11.067 11.294 5.24752 13.8612 2.1948 15.2047C1.29693 15.597 0.498833 15.9563 0.419022 16.0095C0.0931316 16.2223 0.0665283 16.4018 0.0665283 18.4768C0.0665283 19.5343 0.0864808 20.4988 0.106433 20.6118C0.186242 20.9842 0.452276 21.1638 1.93541 21.8156C2.7202 22.1548 6.27841 23.7177 9.84324 25.2873C13.4081 26.8569 16.4276 28.1538 16.5606 28.1737C16.7468 28.207 16.82 28.1804 16.9264 28.0673C17.0528 27.9277 17.0594 27.808 17.0794 25.753C17.0993 23.4251 17.086 23.3121 16.7668 23.086C16.6205 22.9796 14.5653 22.1282 8.94539 19.8535C6.13209 18.7162 6.05227 18.683 6.05227 18.5566C6.05227 18.4236 5.57342 18.6231 11.7653 16.1026C15.6295 14.5262 16.6936 14.0673 16.8532 13.9077L17.0594 13.7016V11.4336V9.1657L16.8998 9.03934C16.7335 8.90632 16.6271 8.89302 16.3611 8.97947Z" fill="white"/>
<path d="M24.269 9.76422C24.2291 9.86399 24.0095 10.436 23.7767 11.0412C22.5396 14.2868 22.6261 14.0341 22.7393 14.0341C22.7726 14.0341 23.8831 14.4929 25.2133 15.0584C27.5677 16.0492 30.514 17.273 32.4427 18.0579C32.9616 18.2707 33.3872 18.4835 33.3872 18.53C33.3872 18.5699 33.3473 18.6364 33.3074 18.6763C33.2608 18.7096 31.545 19.4213 29.4964 20.2459C27.448 21.0773 25.7521 21.7756 25.7255 21.8022C25.6657 21.862 23.3445 27.9543 23.3711 27.9809C23.391 28.0008 25.4726 27.0896 33.7529 23.4451C36.0608 22.4274 38.136 21.5229 38.3687 21.4231C38.6015 21.33 38.9074 21.1438 39.0537 21.0108L39.3064 20.7714V18.5699V16.3619L39.1268 16.1623C38.9273 15.9495 38.4884 15.75 29.2637 11.7262C26.8693 10.682 24.781 9.77087 24.6214 9.70437L24.3355 9.578L24.269 9.76422Z" fill="white"/>
<path d="M22.5131 14.4398C22.4732 14.5661 18.8353 24.1101 18.1102 26.0057C17.791 26.8303 17.5317 27.5952 17.5317 27.7149C17.5317 27.8346 17.5849 27.9876 17.658 28.0674C17.7777 28.1937 17.8442 28.2004 20.325 28.2004H22.8655L23.0386 27.7482C25.1934 22.0817 27.2087 16.8075 27.2885 16.6213L27.3949 16.3819L25.087 15.4108C22.3069 14.2403 22.553 14.3334 22.5131 14.4398Z" fill="white"/>
</svg>
